<svg width="56" height="56" viewBox="0 0 56 56" fill="none" xmlns="http://www.w3.org/2000/svg">
<path d="M28.0001 51.3333C34.0667 51.3333 39.5734 49.0233 43.7267 45.22C43.4934 43.0266 42.0934 40.88 39.5967 39.2C33.2501 34.9533 22.7967 34.9533 16.4034 39.2C13.9067 40.88 12.5067 43.0266 12.2734 45.22C16.4267 49.0233 21.9334 51.3333 28.0001 51.3333ZM28.0001 51.3333C40.8867 51.3333 51.3334 40.8866 51.3334 28C51.3334 15.1133 40.8867 4.66663 28.0001 4.66663C15.1134 4.66663 4.66675 15.1133 4.66675 28C4.66675 40.8866 15.1134 51.3333 28.0001 51.3333ZM28.2801 29.82C28.1167 29.7966 27.9067 29.7966 27.7201 29.82C23.6134 29.68 20.3467 26.32 20.3467 22.19C20.3467 17.9666 23.7534 14.5366 28.0001 14.5366C32.2234 14.5366 35.6534 17.9666 35.6534 22.19C35.6301 26.32 32.3867 29.68 28.2801 29.82Z" stroke="white" stroke-width="1.5" stroke-linecap="round" stroke-linejoin="round"/>
</svg>
